<svg xmlns="http://www.w3.org/2000/svg" width="159" height="40"><defs><clipPath><path d="M0 1570.834h2207.963v-1570.834h-2207.963v1570.834z"/></clipPath></defs><g><path d="M102.623 17.407c0 1.01-.811 1.824-1.821 1.824-1.01 0-1.823-.814-1.823-1.824 0-1.01.813-1.821 1.823-1.821s1.821.811 1.821 1.821" fill="#44cfc0"/><path d="M99.353 12.897c0 1.01-.815 1.823-1.827 1.823-1.005 0-1.821-.813-1.821-1.823 0-1.004.816-1.823 1.821-1.823 1.012 0 1.827.819 1.827 1.823" fill="#44cfc0"/><path d="M94.992 7.902c0 .761-.617 1.38-1.38 1.38-.769 0-1.384-.619-1.384-1.38 0-.762.615-1.381 1.384-1.381.763 0 1.38.619 1.38 1.381" fill="#44cfc0"/><path d="M109.532 7.902c0 .761-.619 1.38-1.38 1.38-.765 0-1.385-.619-1.385-1.38 0-.762.62-1.381 1.385-1.381.761 0 1.38.619 1.38 1.381" fill="#44cfc0"/><path d="M102.191 12.897c0 1.01.816 1.823 1.819 1.823 1.013 0 1.83-.813 1.83-1.823 0-1.004-.818-1.823-1.83-1.823-1.002 0-1.819.819-1.819 1.823" fill="#44cfc0"/><path d="M113.914 4.657c0 .666.54 1.208 1.209 1.208.666 0 1.206-.541 1.206-1.208 0-.667-.54-1.211-1.206-1.211-.669 0-1.209.544-1.209 1.211" fill="#44cfc0"/><path d="M120.957 6.405c0 .589.48 1.07 1.069 1.07s1.069-.481 1.069-1.07c0-.589-.48-1.069-1.069-1.069s-1.069.48-1.069 1.069" fill="#44cfc0"/><path d="M88.513 4.657c0 .666-.54 1.208-1.209 1.208-.666 0-1.209-.541-1.209-1.208 0-.667.542-1.211 1.209-1.211.669 0 1.209.544 1.209 1.211" fill="#44cfc0"/><path d="M81.471 6.405c0 .589-.48 1.07-1.073 1.07-.585 0-1.067-.481-1.067-1.07 0-.589.483-1.069 1.067-1.069.593 0 1.073.48 1.073 1.069" fill="#44cfc0"/><path d="M6.495 25.34c0 .651.104 1.279.315 1.877.215.599.521 1.129.924 1.591.401.461.886.833 1.454 1.113.566.279 1.215.42 1.943.42.759 0 1.421-.155 1.989-.465.568-.31 1.039-.707 1.41-1.195.372-.485.65-1.013.84-1.589.193-.579.285-1.134.285-1.683 0-.545-.092-1.109-.285-1.693-.19-.585-.468-1.121-.84-1.615-.371-.491-.845-.892-1.42-1.205-.576-.309-1.248-.466-2.025-.466-.741 0-1.399.146-1.975.435-.576.284-1.058.665-1.443 1.134-.391.469-.68.996-.878 1.578-.196.589-.294 1.175-.294 1.762m-3.636-3.34c.227-.544.559-1.129 1-1.75.436-.617.995-1.199 1.671-1.739.671-.536 1.469-.983 2.385-1.329.916-.348 1.968-.522 3.147-.522 1.288 0 2.475.235 3.57.706 1.091.469 2.026 1.1 2.817 1.896.785.792 1.401 1.721 1.84 2.782.441 1.061.659 2.176.659 3.344 0 1.165-.217 2.28-.659 3.341-.439 1.063-1.055 1.987-1.84 2.782-.791.794-1.726 1.429-2.817 1.899-1.095.47-2.289.703-3.592.703-1.32 0-2.522-.244-3.615-.726-1.093-.483-2.022-1.125-2.794-1.92-.772-.795-1.373-1.706-1.799-2.729-.424-1.022-.635-2.072-.635-3.147 0-.561.045-1.143.14-1.75.09-.605.261-1.219.521-1.841" fill="#fff"/><path d="M27.97 30.706c.503 0 .948-.09 1.334-.274.386-.184.714-.424.986-.725.271-.305.484-.649.627-1.036.141-.385.215-.778.215-1.169 0-.381-.069-.76-.206-1.139-.136-.377-.335-.721-.601-1.031-.266-.313-.595-.565-.989-.764-.394-.196-.85-.296-1.366-.296-.514 0-.966.1-1.364.296-.39.199-.723.451-.984.764-.269.31-.47.654-.604 1.031-.137.379-.204.758-.204 1.139 0 .391.069.784.215 1.169.144.388.35.731.623 1.036.274.301.605.541.991.725.385.184.83.274 1.326.274m-6.771-9.525h3.545v1.386h.07200000000000001c.378-.483.887-.909 1.52-1.272.64-.361 1.441-.545 2.409-.545 1.124 0 2.074.22 2.854.661.777.44 1.415.992 1.909 1.67.495.675.849 1.415 1.066 2.225.222.813.333 1.58.333 2.309 0 .909-.151 1.767-.456 2.566-.302.804-.725 1.505-1.274 2.105-.544.599-1.192 1.071-1.94 1.418-.753.35-1.574.525-2.465.525-.578 0-1.075-.061-1.492-.182-.416-.121-.777-.264-1.087-.43-.31-.169-.568-.335-.764-.514-.196-.173-.349-.321-.454-.444v5.341h-3.774v-16.819z" fill="#fff"/><path d="M44.95 26.091c-.044-.181-.126-.396-.236-.647-.114-.251-.285-.489-.515-.716-.226-.225-.514-.415-.862-.567-.348-.149-.766-.226-1.249-.226-.486 0-.902.078-1.255.226-.346.152-.634.343-.862.567-.225.227-.394.465-.507.716-.113.251-.192.466-.241.647h5.729zm3.34 3.751c-.302.711-.674 1.335-1.114 1.874-.439.536-.924.991-1.454 1.352-1.059.759-2.256 1.137-3.591 1.137-.906 0-1.765-.17-2.567-.514-.802-.339-1.514-.813-2.125-1.42-.615-.605-1.1-1.313-1.454-2.123-.356-.813-.535-1.689-.535-2.625 0-.881.163-1.73.489-2.546.325-.819.785-1.539 1.374-2.16.591-.62 1.291-1.121 2.104-1.498.811-.383 1.695-.571 2.646-.571.956 0 1.843.179 2.662.534.817.355 1.521.844 2.111 1.464.593.625 1.051 1.356 1.384 2.197.336.84.504 1.739.504 2.692 0 .256-.008.451-.021.579l-.072.42h-9.453c.121.76.456 1.348 1.009 1.762.555.418 1.2.626 1.945.626.578 0 1.037-.116 1.386-.343.349-.227.654-.508.911-.84h3.861z" fill="#fff"/><path d="M49.903 21.181h3.524v1.341h.044c.094-.15.217-.33.375-.534.163-.204.372-.398.637-.578.264-.181.595-.34.99-.466.394-.13.869-.195 1.431-.195.606 0 1.208.107 1.806.319.599.211 1.071.471 1.424.774.166.151.335.33.509.534.174.206.329.465.468.785.134.318.247.699.338 1.145.094.446.14.983.14 1.604v7.886h-3.776v-6.886c0-.226-.01-.49-.033-.785-.024-.295-.092-.58-.217-.85-.119-.275-.31-.505-.579-.695-.266-.189-.646-.285-1.149-.285-.541 0-.96.105-1.248.309-.289.201-.5.445-.637.728-.136.279-.215.568-.237.864-.024.294-.034.541-.034.736v6.865h-3.775v-12.615z" fill="#fff"/><path d="M70.844 21.887l-.105-.489c-.034-.189-.111-.372-.213-.545-.11-.175-.258-.319-.446-.431-.189-.116-.453-.173-.785-.173-.378 0-.717.121-1.022.364-.305.244-.453.563-.453.955 0 .256.036.469.114.637.073.166.237.335.49.511.247.175.6.371 1.055.589.454.224 1.061.499 1.817.83.787.351 1.434.704 1.943 1.07.508.362.909.74 1.205 1.135.297.395.499.807.615 1.24.114.431.17.889.17 1.375 0 .62-.098 1.239-.296 1.851-.197.613-.521 1.163-.976 1.649-.455.485-1.059.884-1.808 1.194-.75.311-1.679.463-2.782.463-1.212 0-2.216-.176-3-.534-.792-.355-1.41-.799-1.866-1.326-.454-.53-.769-1.109-.94-1.727-.176-.621-.264-1.209-.264-1.75v-.547h4.274c0 .485.063.877.191 1.182.129.301.29.539.478.706.189.166.383.276.579.328.199.053.366.081.503.081.514 0 .917-.173 1.206-.514.285-.339.428-.707.428-1.1 0-.275-.05-.506-.147-.706-.099-.195-.271-.379-.524-.545-.246-.17-.585-.345-1.009-.534-.424-.189-.963-.421-1.611-.694-.304-.119-.691-.295-1.151-.511-.463-.22-.911-.517-1.351-.886-.44-.372-.818-.839-1.137-1.398-.318-.563-.474-1.234-.474-2.024 0-.787.171-1.487.522-2.104.348-.613.801-1.133 1.364-1.555.557-.426 1.188-.749 1.885-.965.696-.22 1.4-.331 2.112-.331.831 0 1.663.156 2.486.466.829.31 1.512.794 2.059 1.445.242.302.435.602.58.899.142.292.256.581.33.862.075.28.125.548.146.805l.058.751h-4.248z" fill="#fff"/><path d="M82.982 30.706c.495 0 .943-.09 1.328-.274.385-.184.715-.424.99-.725.27-.305.479-.649.624-1.036.142-.385.216-.778.216-1.169 0-.381-.071-.76-.204-1.139-.139-.377-.34-.721-.604-1.031-.264-.313-.595-.565-.991-.764-.391-.196-.85-.296-1.359-.296-.521 0-.974.1-1.369.296-.39.199-.723.451-.986.764-.266.31-.465.654-.601 1.031-.14.379-.206.758-.206 1.139 0 .391.074.784.219 1.169.14.387.351.731.623 1.036.27.301.604.541.989.725.388.184.831.274 1.333.274m-6.776-9.525h3.546v1.386h.068c.378-.483.887-.909 1.522-1.272.637-.361 1.441-.545 2.409-.545 1.125 0 2.071.22 2.851.661.782.44 1.42.992 1.909 1.67.495.675.85 1.415 1.074 2.225.215.813.327 1.58.327 2.309 0 .909-.151 1.767-.454 2.566-.305.804-.727 1.505-1.272 2.105-.548.599-1.194 1.071-1.945 1.418-.749.35-1.57.525-2.466.525-.576 0-1.073-.061-1.492-.182-.414-.121-.777-.264-1.087-.43-.31-.169-.565-.335-.759-.514-.199-.173-.35-.321-.456-.444v5.341h-3.774v-16.819z" fill="#fff"/><path d="M91.118 21.181h3.541v1.341h.049c.075-.15.181-.33.318-.534.136-.204.32-.398.557-.578.235-.181.535-.34.909-.466.37-.13.825-.195 1.374-.195v3.796c-.436.014-.839.054-1.202.112-.364.06-.679.176-.945.341-.266.166-.473.401-.615.704-.143.305-.214.691-.214 1.16v6.933h-3.771v-12.615z" fill="#fff"/><path d="M102.707 33.797h-3.775v-12.615h3.775v12.615z" fill="#44cfc0"/><path d="M104.524 21.181h3.524v1.341h.044c.091-.15.215-.33.378-.534.16-.204.371-.398.637-.578.264-.181.593-.34.989-.466.391-.13.867-.195 1.431-.195.605 0 1.208.107 1.805.319.599.211 1.074.471 1.421.774.166.151.338.33.514.534.171.206.326.465.464.785.136.318.25.699.339 1.145.094.446.14.983.14 1.604v7.886h-3.774v-6.886c0-.226-.011-.49-.036-.785-.021-.295-.092-.58-.214-.85-.122-.275-.315-.505-.581-.695-.264-.189-.646-.285-1.146-.285-.545 0-.963.105-1.25.309-.286.201-.501.445-.636.728-.136.279-.216.568-.239.864-.026.294-.034.541-.034.736v6.865h-3.775v-12.615z" fill="#fff"/><path d="M118.116 16.978h3.772v8.774h.048l3.5-4.571h4.474l-4.749 5.547 4.614 7.069h-4.271l-3.567-6.07h-.048v6.07h-3.772v-16.819z" fill="#fff"/><path d="M130.503 16.978h3.776v16.819h-3.776v-16.819z" fill="#fff"/><path d="M144.912 26.091c-.046-.181-.126-.396-.239-.647-.112-.251-.283-.489-.51-.716-.229-.225-.519-.415-.867-.568-.346-.149-.764-.226-1.248-.226-.485 0-.904.077-1.25.226-.35.152-.635.343-.864.567-.225.227-.399.465-.513.716-.11.251-.194.466-.235.647h5.725zm3.34 3.751c-.302.711-.674 1.335-1.111 1.874-.439.536-.925.991-1.456 1.352-1.061.759-2.256 1.137-3.59 1.137-.91 0-1.765-.17-2.569-.514-.802-.339-1.511-.813-2.127-1.42-.61-.605-1.097-1.313-1.454-2.123-.356-.813-.532-1.689-.532-2.625 0-.881.16-1.73.489-2.546.325-.819.781-1.539 1.374-2.16.591-.62 1.294-1.121 2.104-1.498.811-.383 1.693-.571 2.646-.571.956 0 1.843.179 2.66.534.816.355 1.521.844 2.114 1.464.59.625 1.054 1.356 1.388 2.197.331.84.5 1.739.5 2.692 0 .256-.008.451-.024.579l-.067.42h-9.454c.12.76.455 1.348 1.01 1.762.555.418 1.2.626 1.944.626.574 0 1.036-.116 1.385-.343.351-.227.653-.508.911-.84h3.861z" fill="#fff"/><path d="M149.845 21.181h3.545v1.341h.046c.076-.15.181-.33.315-.534.138-.204.326-.398.56-.578.234-.181.537-.34.91-.466.37-.13.829-.195 1.373-.195v3.796c-.44.014-.84.054-1.202.113-.366.06-.679.176-.945.341-.264.166-.468.401-.613.704-.142.305-.216.691-.216 1.16v6.933h-3.772v-12.615z" fill="#fff"/></g></svg>